<svg id="Camada_1" data-name="Camada 1" xmlns="http://www.w3.org/2000/svg" xmlns:xlink="http://www.w3.org/1999/xlink" viewBox="0 0 1920 1080"><defs><style>.cls-1{fill:url(#Gradiente_sem_nome_32);}.cls-2{fill:url(#Gradiente_sem_nome_32-2);}.cls-3{fill:#232526;}</style><linearGradient id="Gradiente_sem_nome_32" x1="508.3" y1="660.06" x2="368.45" y2="417.83" gradientUnits="userSpaceOnUse"><stop offset="0.4" stop-color="#b31217"/><stop offset="1" stop-color="#e52d27"/></linearGradient><linearGradient id="Gradiente_sem_nome_32-2" x1="359.71" y1="624.92" x2="310.68" y2="540" xlink:href="#Gradiente_sem_nome_32"/></defs><path class="cls-1" d="M515.14,398.3A25.56,25.56,0,0,1,509,415.4a52.48,52.48,0,0,1-14.75,12q-7.69,4.71-15.82,10a103.31,103.31,0,0,0-15,12,58.08,58.08,0,0,0-11.11,14.75A38.84,38.84,0,0,0,448,482.51a31.42,31.42,0,0,0,4.28,16.24,93,93,0,0,0,10.47,14.32q6.2,7,13.68,14.53a113.7,113.7,0,0,1,13.68,16.67A98.23,98.23,0,0,1,500.61,565q4.26,11.54,4.28,26.93,0,10.68-4.49,24.15a156.31,156.31,0,0,1-12.19,27.14,185.05,185.05,0,0,1-18.16,26.5,178.88,178.88,0,0,1-22.23,22.87,114.9,114.9,0,0,1-24.58,16.24q-12.83,6.2-24.79,6.2a39.67,39.67,0,0,1-23.51-7.26q-10.26-7.28-10.26-21.8a36.3,36.3,0,0,1,4.7-18.17,92.35,92.35,0,0,1,11.54-16,168.1,168.1,0,0,1,15.18-15,208.35,208.35,0,0,0,15.17-14.54,86.94,86.94,0,0,0,11.54-15.17,32.44,32.44,0,0,0,4.71-16.88q0-12.4-8.77-25.44T399.3,537.86a301.18,301.18,0,0,1-19.44-28.42q-8.78-14.54-8.77-29.5,0-18.37,9.83-38.68a156,156,0,0,1,25.22-37.19,144.75,144.75,0,0,1,34.63-28Q460,365,478.81,365q15,0,25.65,9T515.14,398.3Z"/><circle class="cls-2" cx="335.19" cy="582.46" r="49.02"/><path class="cls-3" d="M658.56,631.15q-19.84,0-34-5t-23-12q-8.85-7.08-13.28-14.17t-4.78-11.33a6.29,6.29,0,0,1,2.48-6,9.39,9.39,0,0,1,5.67-2.13h15.93a7.53,7.53,0,0,1,3,.54,11.37,11.37,0,0,1,3.37,3A135.79,135.79,0,0,0,624.21,594a45.83,45.83,0,0,0,14,8.15q8.32,3.18,20.72,3.18,18.06,0,29.75-6.9T700.35,578q0-8.84-4.79-14.16t-17-9.56q-12.23-4.26-33.47-8.86-21.26-5-33.64-12.21t-17.71-17.36A48.27,48.27,0,0,1,588.44,493a46.44,46.44,0,0,1,7.79-25.32q7.78-12.21,22.84-20t37.72-7.79q18.4,0,31.51,4.61T709.91,456a58.43,58.43,0,0,1,12.74,13.63q4.26,6.73,4.61,11.33a6.69,6.69,0,0,1-2.12,5.84,8.11,8.11,0,0,1-5.67,2.31H704.59a7.18,7.18,0,0,1-4.07-1.07,19.36,19.36,0,0,1-3-2.47,83.39,83.39,0,0,0-8.32-9.21,37.61,37.61,0,0,0-12.39-7.62q-7.62-3-20-3-17.71,0-26.56,7.43A23.47,23.47,0,0,0,621.37,492a19.82,19.82,0,0,0,3.9,12q3.88,5.31,14.87,9.56t32.58,9.21q23.37,4.61,36.83,12.39t19.13,18.06A48.45,48.45,0,0,1,734.34,577a47.15,47.15,0,0,1-8.5,27.27q-8.49,12.4-25.49,19.66T658.56,631.15Z"/><path class="cls-3" d="M844.12,631.15q-22.67,0-38.42-10.1a63.56,63.56,0,0,1-23.91-28.15q-8.14-18.06-8.14-41.44V451.6a7.87,7.87,0,0,1,8.14-8.15H799.5a7.89,7.89,0,0,1,8.15,8.15v98.09q0,52.78,46,52.77,22,0,35.24-14t13.28-38.78V451.6a7.87,7.87,0,0,1,8.14-8.15h17.71a7.37,7.37,0,0,1,5.67,2.3,8.33,8.33,0,0,1,2.12,5.85V619.46a8.29,8.29,0,0,1-2.12,5.84,7.34,7.34,0,0,1-5.67,2.3H911.41a7.87,7.87,0,0,1-8.15-8.14V603.88a73.49,73.49,0,0,1-23.19,19.83Q866.44,631.14,844.12,631.15Z"/><path class="cls-3" d="M997.1,627.6a7.87,7.87,0,0,1-8.14-8.14V384.31a7.87,7.87,0,0,1,8.14-8.14h16.65a7.81,7.81,0,0,1,6,2.3,8.28,8.28,0,0,1,2.12,5.84V619.46a8.25,8.25,0,0,1-2.12,5.84,7.78,7.78,0,0,1-6,2.3Z"/><path class="cls-3" d="M1082.8,627.6a7.87,7.87,0,0,1-8.14-8.14V451.6a7.87,7.87,0,0,1,8.14-8.15h15.94a7.87,7.87,0,0,1,8.14,8.15V464a60.43,60.43,0,0,1,20.54-17.53q12.4-6.54,29.75-6.55,40-.35,56.66,32.58a60.34,60.34,0,0,1,23.73-23.72q15.57-8.85,35.41-8.86a67,67,0,0,1,33.47,8.5q15,8.5,23.72,25.68t8.68,43V619.46a7.87,7.87,0,0,1-8.15,8.14h-16.64a7.87,7.87,0,0,1-8.14-8.14V520.3q0-19.83-5.67-31.16T1285,473.2a47.64,47.64,0,0,0-20.89-4.6,43.16,43.16,0,0,0-18.77,4.6q-9.57,4.6-15.76,15.94t-6.2,31.16v99.16a7.87,7.87,0,0,1-8.14,8.14H1198.6a7.87,7.87,0,0,1-8.14-8.14V520.3q0-19.83-6-31.16t-15.58-15.94a46.12,46.12,0,0,0-20.19-4.6,43.2,43.2,0,0,0-18.77,4.6q-9.56,4.6-15.76,15.94T1108,520v99.51a7.88,7.88,0,0,1-8.15,8.14Z"/><path class="cls-3" d="M1422.74,451.62V619.44a7.9,7.9,0,0,1-2.26,5.85,8,8,0,0,1-5.85,2.32h-17a8,8,0,0,1-5.85-2.32,7.9,7.9,0,0,1-2.26-5.85V451.62a7.9,7.9,0,0,1,2.26-5.85,8,8,0,0,1,5.85-2.31h17a8,8,0,0,1,5.85,2.31A7.9,7.9,0,0,1,1422.74,451.62Z"/><path class="cls-3" d="M1550.61,705.51q-24.09,0-39.49-6.37T1487,683.73q-8.68-9-12.39-18.06t-4.08-14.34a6.9,6.9,0,0,1,2.3-6,8.43,8.43,0,0,1,5.85-2.48h17a9.34,9.34,0,0,1,5.31,1.42q2.12,1.41,3.54,6a70.12,70.12,0,0,0,6.37,11.86q4.26,6.55,13.11,11.33t24.79,4.78q16.64,0,28-4.6A33.07,33.07,0,0,0,1594,658.06q5.84-11,5.84-30.46V603.52a67.15,67.15,0,0,1-22.31,18.24q-13.82,7.26-34.7,7.26-19.85,0-34-6.91a63.52,63.52,0,0,1-23.2-18.77,81.91,81.91,0,0,1-13.46-27.09,134.09,134.09,0,0,1-5.13-31.87q-.36-9.9,0-19.47a134.25,134.25,0,0,1,5.13-31.88,84,84,0,0,1,13.46-27.26,62.87,62.87,0,0,1,23.2-18.95q14.16-6.92,34-6.91,21.24,0,35.23,7.79a72.33,72.33,0,0,1,22.84,19.48V452a8.52,8.52,0,0,1,2.31-6,7.62,7.62,0,0,1,5.84-2.48h16.29a8.47,8.47,0,0,1,8.5,8.5V623.71q0,23.71-8,42.14t-26.2,29Q1581.41,705.51,1550.61,705.51Zm-.71-104.82q17.7,0,28.51-8.15A48.47,48.47,0,0,0,1594.34,572a70.47,70.47,0,0,0,5.49-25.14c.23-3.3.36-7.37.36-12.22s-.13-8.91-.36-12.21a70.57,70.57,0,0,0-5.49-25.15,48.65,48.65,0,0,0-15.93-20.54q-10.82-8.13-28.51-8.14t-28.33,8a43.76,43.76,0,0,0-15.23,20.89,95.92,95.92,0,0,0-5.31,27.8q-.36,9.21,0,18.77a96,96,0,0,0,5.31,27.8,43.76,43.76,0,0,0,15.23,20.89Q1532.19,600.68,1549.9,600.69Z"/><circle class="cls-3" cx="1406.12" cy="391.22" r="16.73"/></svg>